<svg width="610" height="575" viewBox="0 0 610 575" fill="none" xmlns="http://www.w3.org/2000/svg">
<path d="M383.729 -114.966C433.011 -106.423 482.05 -84.6419 517.532 -46.2883C552.014 -9.01528 559.106 47.3138 578.712 95.7996C597.297 141.761 624.93 183.555 630.636 233.419C636.571 285.293 631.675 339.284 612.025 386.945C592.379 434.598 558.181 473.665 519.145 503.848C481.511 532.947 436.442 545.403 391.656 557.336C347.218 569.176 302.512 578.539 256.988 573.697C208.93 568.585 157.953 561.175 120.068 528.449C82.3055 495.827 64.8957 443.101 48.5285 393.621C33.3134 347.624 34.8827 298.802 28.112 250.453C20.4663 195.855 -13.3935 139.737 5.82171 88.6531C24.9264 37.8635 84.5912 23.842 125.399 -8.18311C163.394 -38.0012 195.49 -76.4445 239.239 -94.5285C285.242 -113.544 335.154 -123.386 383.729 -114.966Z" fill="#BFB48F"/>
</svg>
