<svg width="474" height="693" viewBox="0 0 474 693" fill="none" xmlns="http://www.w3.org/2000/svg">
<path d="M201.495 3.03386C255.371 11.5766 308.981 33.3581 347.769 71.7117C385.465 108.985 393.219 165.314 414.652 213.8C434.97 259.761 465.178 301.555 471.416 351.419C477.904 403.293 472.551 457.284 451.07 504.945C429.593 552.598 392.207 591.665 349.533 621.848C308.391 650.947 259.121 663.403 210.161 675.336C161.581 687.176 112.708 696.539 62.9407 691.697C10.4035 686.585 -45.3244 679.175 -86.7403 646.449C-128.023 613.827 -147.056 561.101 -164.948 511.621C-181.582 465.624 -179.866 416.802 -187.268 368.453C-195.626 313.855 -232.642 257.737 -211.636 206.653C-190.75 155.863 -125.524 141.842 -80.9132 109.817C-39.3764 79.9988 -4.28897 41.5555 43.5376 23.4715C93.8281 4.45589 148.393 -5.38621 201.495 3.03386Z" fill="#DAC6AE"/>
</svg>
