<svg width="735" height="750" viewBox="0 0 735 750" fill="none" xmlns="http://www.w3.org/2000/svg">
<path opacity="0.7" d="M417.661 4.8899C476.019 11.0972 532.112 27.1201 584.019 53.2076C636.506 79.5863 684.58 113.309 721.42 157.553C759.226 202.957 791.868 254.707 799.615 312.132C807.281 368.959 781.376 423.519 764.728 478.584C748.05 533.747 738.815 592.61 701.232 637.543C662.97 683.286 608.57 715.551 550.479 734.728C493.669 753.482 432.527 751.941 372.713 745.994C314.538 740.211 258.561 725.237 206.185 700.498C152.418 675.101 98.0729 646.35 63.2962 599.843C28.499 553.309 19.5063 494.832 10.2209 438.435C1.00564 382.465 -6.69885 325.244 9.09083 270.615C24.9628 215.702 61.4919 169.22 100.524 126.004C140.073 82.2174 182.286 37.9893 238.634 16.4702C294.837 -4.99367 357.464 -1.51307 417.661 4.8899Z" fill="#716237"/>
</svg>
