<svg width="683" height="686" viewBox="0 0 683 686" fill="none" xmlns="http://www.w3.org/2000/svg">
<path opacity="0.85" d="M365.556 28.0925C433.767 36.6286 509.205 15.911 565.819 54.9285C624.805 95.5815 654.084 168.084 670.054 237.949C686.023 307.806 693.146 387.008 655.691 448.086C619.512 507.081 535.337 508.653 479.225 549.129C425.466 587.906 398.741 663.007 334.604 679.696C268.034 697.017 193.456 677.162 136.722 638.248C82.2732 600.903 58.829 534.74 34.0205 473.528C11.8376 418.794 -4.01744 361.978 0.897981 303.119C5.73963 245.144 31.001 192.742 61.6008 143.275C94.3679 90.3042 125.762 29.208 183.984 7.14496C242.138 -14.8923 303.852 20.3708 365.556 28.0925Z" fill="#C69E6B"/>
</svg>
