<svg width="567" height="685" viewBox="0 0 567 685" fill="none" xmlns="http://www.w3.org/2000/svg">
<path d="M441.303 41.6532C511.597 55.9959 593.525 34.6645 648.501 80.8148C704.77 128.05 732.036 208.532 727.517 281.918C723.228 351.564 652.84 395.53 625.178 459.575C596.363 526.287 620.562 620.094 562.571 663.806C505.119 707.112 422.926 671.534 351.224 666.074C284.737 661.011 217.501 663.219 158.042 633C94.3296 600.619 24.8133 558.285 4.2947 489.753C-16.016 421.915 41.592 357.398 54.6898 287.801C67.1375 221.659 40.1924 146.287 79.2433 91.5052C118.968 35.7779 191.168 10.6497 258.905 1.32289C321.864 -7.34585 379.031 28.9476 441.303 41.6532Z" fill="#BFB48F"/>
</svg>
